<svg width="36" height="36" viewBox="0 0 36 36" fill="none" xmlns="http://www.w3.org/2000/svg">
<path d="M23 15.5H33C33.6628 15.4992 34.2983 15.2356 34.7669 14.7669C35.2356 14.2982 35.4992 13.6628 35.5 13V3C35.4992 2.33719 35.2356 1.70175 34.7669 1.23307C34.2983 0.764397 33.6628 0.500761 33 0.5H23C22.3372 0.500761 21.7017 0.764397 21.2331 1.23307C20.7644 1.70175 20.5008 2.33719 20.5 3H9.25C8.58719 3.00076 7.95175 3.2644 7.48307 3.73307C7.0144 4.20175 6.75076 4.83719 6.75 5.5V10.5H3C2.33719 10.5008 1.70175 10.7644 1.23307 11.2331C0.764397 11.7018 0.500761 12.3372 0.5 13V23C0.500761 23.6628 0.764397 24.2983 1.23307 24.7669C1.70175 25.2356 2.33719 25.4992 3 25.5H5.5V30.5C5.50076 31.1628 5.7644 31.7983 6.23307 32.2669C6.70175 32.7356 7.33719 32.9992 8 33H20.5C20.5008 33.6628 20.7644 34.2983 21.2331 34.7669C21.7017 35.2356 22.3372 35.4992 23 35.5H33C33.6628 35.4992 34.2983 35.2356 34.7669 34.7669C35.2356 34.2983 35.4992 33.6628 35.5 33V23C35.4992 22.3372 35.2356 21.7017 34.7669 21.2331C34.2983 20.7644 33.6628 20.5008 33 20.5H23C22.3372 20.5008 21.7017 20.7644 21.2331 21.2331C20.7644 21.7017 20.5008 22.3372 20.5 23V30.5H8V25.5H13C13.6628 25.4992 14.2982 25.2356 14.7669 24.7669C15.2356 24.2983 15.4992 23.6628 15.5 23V13C15.4992 12.3372 15.2356 11.7018 14.7669 11.2331C14.2982 10.7644 13.6628 10.5008 13 10.5H9.25V5.5H20.5V13C20.5008 13.6628 20.7644 14.2982 21.2331 14.7669C21.7017 15.2356 22.3372 15.4992 23 15.5V15.5ZM23 33V28H33V33H23ZM33 23V25.5H23V23H33ZM3 23V18H13V23H3ZM13.0006 15.5H3V13H13L13.0006 15.5ZM23 13V8H33V13H23ZM33 3V5.5H23V3H33Z" fill="url(#paint0_linear_878_7312)"/>
<defs>
<linearGradient id="paint0_linear_878_7312" x1="1.07008" y1="18" x2="36.7429" y2="17.9029" gradientUnits="userSpaceOnUse">
<stop stop-color="#FF1654"/>
<stop offset="1" stop-color="#2E60FB"/>
</linearGradient>
</defs>
</svg>
