<svg width="36" height="32" viewBox="0 0 36 32" fill="none" xmlns="http://www.w3.org/2000/svg">
<path d="M27.3748 0H8.62478L0.144531 11.3067L17.9998 31.9086L35.855 11.3067L27.3748 0ZM31.7498 10H24.9427L20.2552 2.5H26.1248L31.7498 10ZM10.8774 12.5L15.5694 25.2875L4.48728 12.5H10.8774ZM13.5399 12.5H22.4598L17.9985 24.6515L13.5399 12.5ZM14.0055 10L17.9998 3.60838L21.9944 10H14.0055ZM25.1224 12.5H31.5123L20.4282 25.2892L25.1224 12.5ZM9.87478 2.5H15.7444L11.0569 10H4.24978L9.87478 2.5Z" fill="url(#paint0_linear_878_7451)"/>
<defs>
<linearGradient id="paint0_linear_878_7451" x1="0.72618" y1="15.9543" x2="37.1231" y2="15.8435" gradientUnits="userSpaceOnUse">
<stop stop-color="#FF1654"/>
<stop offset="1" stop-color="#2E60FB"/>
</linearGradient>
</defs>
</svg>
