<svg width="30" height="36" viewBox="0 0 30 36" fill="none" xmlns="http://www.w3.org/2000/svg">
<path fill-rule="evenodd" clip-rule="evenodd" d="M7.28026 31.3839L15 35.5L22.7198 31.3836C24.9207 30.2129 26.7612 28.4648 28.0438 26.3272C29.3264 24.1895 30.0027 21.7429 30 19.25V3C29.9993 2.33718 29.7357 1.70172 29.267 1.23304C28.7983 0.764354 28.1628 0.500728 27.5 0.5H2.50001C1.83719 0.500728 1.20173 0.764354 0.733045 1.23304C0.264362 1.70172 0.000736041 2.33718 8.14877e-06 3V19.25C-0.0027078 21.743 0.673533 24.1896 1.95614 26.3273C3.23876 28.465 5.07931 30.2131 7.28026 31.3839ZM2.50001 19.25V3H27.5V19.25C27.5022 21.2898 26.9488 23.2916 25.8993 25.0407C24.8498 26.7897 23.3439 28.22 21.543 29.1779L15 32.6666L8.45701 29.1779C6.65616 28.22 5.15017 26.7897 4.10069 25.0407C3.0512 23.2916 2.49784 21.2898 2.50001 19.25ZM15 5.5V29.5963L20.375 26.7224C21.7723 25.9754 22.9406 24.8631 23.7551 23.5041C24.5697 22.1451 25 20.5904 25 19.006V5.5H15Z" fill="url(#paint0_linear_878_7566)"/>
<defs>
<linearGradient id="paint0_linear_878_7566" x1="0.488637" y1="18" x2="31.0654" y2="17.9287" gradientUnits="userSpaceOnUse">
<stop stop-color="#FF1654"/>
<stop offset="1" stop-color="#2E60FB"/>
</linearGradient>
</defs>
</svg>
