<svg width="36" height="34" viewBox="0 0 36 34" fill="none" xmlns="http://www.w3.org/2000/svg">
<path d="M13 33.25C12.7532 33.2488 12.5123 33.1745 12.3077 33.0366C12.103 32.8987 11.9438 32.7033 11.85 32.475L5.9125 18.25H0.5V15.75H6.75C6.99678 15.7512 7.23768 15.8255 7.44233 15.9634C7.64698 16.1013 7.80622 16.2967 7.9 16.525L13 28.6L23.075 1.56251C23.1644 1.32326 23.3249 1.11713 23.535 0.971866C23.7451 0.826603 23.9946 0.749177 24.25 0.750007C24.5078 0.75451 24.7578 0.838607 24.966 0.990776C25.1741 1.14294 25.33 1.35574 25.4125 1.60001L30.15 15.75H35.5V18.25H29.25C28.9879 18.2507 28.7323 18.169 28.5192 18.0165C28.3061 17.8639 28.1464 17.6483 28.0625 17.4L24.25 5.75001L14.175 32.4375C14.0856 32.6768 13.9251 32.8829 13.715 33.0281C13.5049 33.1734 13.2554 33.2508 13 33.25Z" fill="url(#paint0_linear_878_7303)"/>
<defs>
<linearGradient id="paint0_linear_878_7303" x1="1.07008" y1="17" x2="36.7429" y2="16.8955" gradientUnits="userSpaceOnUse">
<stop stop-color="#FF1654"/>
<stop offset="1" stop-color="#2E60FB"/>
</linearGradient>
</defs>
</svg>
