<svg width="14" height="12" viewBox="0 0 14 12" fill="none" xmlns="http://www.w3.org/2000/svg">
<path d="M3.62669 1.33334C3.62651 1.68696 3.48587 2.02603 3.23569 2.27595C2.98552 2.52587 2.64631 2.66618 2.29269 2.666C1.93907 2.66583 1.6 2.52518 1.35007 2.27501C1.10015 2.02483 0.959845 1.68563 0.960022 1.332C0.960199 0.978381 1.10084 0.639313 1.35102 0.389389C1.60119 0.139466 1.9404 -0.000840401 2.29402 -0.00066359C2.64764 -0.000486779 2.98671 0.140159 3.23664 0.390332C3.48656 0.640506 3.62687 0.979714 3.62669 1.33334ZM3.66669 3.65334H1.00002V12H3.66669V3.65334ZM7.88002 3.65334H5.22669V12H7.85335V7.62C7.85335 5.18 11.0334 4.95334 11.0334 7.62V12H13.6667V6.71334C13.6667 2.6 8.96002 2.75334 7.85335 4.77334L7.88002 3.65334Z" fill="white"/>
</svg>
