<svg width="14" height="14" viewBox="0 0 14 14" fill="none" xmlns="http://www.w3.org/2000/svg">
<path d="M9 7C9 7.39556 8.8827 7.78224 8.66294 8.11114C8.44318 8.44004 8.13082 8.69638 7.76537 8.84776C7.39991 8.99913 6.99778 9.03874 6.60982 8.96157C6.22186 8.8844 5.86549 8.69392 5.58579 8.41421C5.30608 8.13451 5.1156 7.77814 5.03843 7.39018C4.96126 7.00222 5.00087 6.60009 5.15224 6.23463C5.30362 5.86918 5.55996 5.55682 5.88886 5.33706C6.21776 5.1173 6.60444 5 7 5C7.52993 5.00165 8.03768 5.21289 8.41239 5.58761C8.78711 5.96232 8.99835 6.47007 9 7ZM13.25 4.25V9.75C13.25 10.6783 12.8813 11.5685 12.2249 12.2249C11.5685 12.8813 10.6783 13.25 9.75 13.25H4.25C3.32174 13.25 2.4315 12.8813 1.77513 12.2249C1.11875 11.5685 0.75 10.6783 0.75 9.75V4.25C0.75 3.32174 1.11875 2.4315 1.77513 1.77513C2.4315 1.11875 3.32174 0.75 4.25 0.75H9.75C10.6783 0.75 11.5685 1.11875 12.2249 1.77513C12.8813 2.4315 13.25 3.32174 13.25 4.25ZM10 7C10 6.40666 9.82405 5.82664 9.49441 5.33329C9.16476 4.83994 8.69623 4.45542 8.14805 4.22836C7.59987 4.0013 6.99667 3.94189 6.41473 4.05764C5.83279 4.1734 5.29824 4.45912 4.87868 4.87868C4.45912 5.29824 4.1734 5.83279 4.05764 6.41473C3.94189 6.99667 4.0013 7.59987 4.22836 8.14805C4.45542 8.69623 4.83994 9.16476 5.33329 9.49441C5.82664 9.82405 6.40666 10 7 10C7.79565 10 8.55871 9.68393 9.12132 9.12132C9.68393 8.55871 10 7.79565 10 7ZM11 3.75C11 3.60166 10.956 3.45666 10.8736 3.33332C10.7912 3.20999 10.6741 3.11386 10.537 3.05709C10.4 3.00032 10.2492 2.98547 10.1037 3.01441C9.9582 3.04335 9.82456 3.11478 9.71967 3.21967C9.61478 3.32456 9.54335 3.4582 9.51441 3.60368C9.48547 3.74917 9.50033 3.89997 9.55709 4.03701C9.61386 4.17406 9.70999 4.29119 9.83332 4.3736C9.95666 4.45601 10.1017 4.5 10.25 4.5C10.4489 4.5 10.6397 4.42098 10.7803 4.28033C10.921 4.13968 11 3.94891 11 3.75Z" fill="white"/>
</svg>
