<svg width="36" height="36" viewBox="0 0 36 36" fill="none" xmlns="http://www.w3.org/2000/svg">
<path fill-rule="evenodd" clip-rule="evenodd" d="M11.7706 1.63334C13.9723 0.794662 16.3207 0.409207 18.675 0.500084C23.0792 0.681451 27.2541 2.5123 30.3709 5.62915C33.4878 8.746 35.3186 12.9209 35.5 17.3251C35.5909 19.6794 35.2054 22.0278 34.3667 24.2295C33.5281 26.4312 32.2534 28.441 30.6193 30.1381C28.9851 31.8353 27.0251 33.1851 24.8566 34.1065C22.6882 35.0278 20.3561 35.5018 18 35.5001C17.0054 35.5001 16.0516 35.105 15.3484 34.4017C14.6451 33.6985 14.25 32.7446 14.25 31.7501V27.0501C14.2511 26.4728 14.119 25.903 13.8638 25.3852C13.6086 24.8673 13.2373 24.4154 12.7788 24.0646C12.3203 23.7137 11.787 23.4735 11.2205 23.3626C10.6539 23.2517 10.0694 23.2731 9.5125 23.4251L8.1125 23.8126C7.2186 24.0567 6.28041 24.0914 5.37092 23.9139C4.46142 23.7364 3.60513 23.3515 2.86862 22.7892C2.13211 22.2268 1.53525 21.5021 1.12444 20.6715C0.713626 19.8409 0.499943 18.9267 0.500005 18.0001C0.498252 15.644 0.972267 13.3119 1.89363 11.1435C2.815 8.97503 4.16474 7.01498 5.86194 5.38082C7.55914 3.74665 9.56884 2.47202 11.7706 1.63334ZM23.8799 31.8042C25.7386 31.0113 27.4168 29.8489 28.8125 28.3876V28.4001C30.2211 26.9498 31.319 25.2273 32.039 23.3381C32.7591 21.4488 33.086 19.4325 33 17.4126C32.8042 13.6536 31.2229 10.1004 28.5613 7.43877C25.8997 4.77717 22.3465 3.19586 18.5875 3.00008C16.5688 2.92096 14.5549 3.25043 12.6667 3.96875C10.7784 4.68706 9.05475 5.7794 7.59904 7.18024C6.14333 8.58108 4.98561 10.2615 4.19531 12.1208C3.40502 13.9801 2.99845 15.9798 3 18.0001C2.99883 18.5414 3.12235 19.0758 3.361 19.5617C3.59965 20.0476 3.94701 20.472 4.37615 20.802C4.80528 21.132 5.30466 21.3588 5.83556 21.4647C6.36645 21.5705 6.91461 21.5527 7.4375 21.4126L8.83751 21.0251C9.37925 20.8767 9.93832 20.8011 10.5 20.8001C12.1576 20.8001 13.7473 21.4586 14.9194 22.6307C16.0915 23.8028 16.75 25.3925 16.75 27.0501V31.7501C16.75 32.0816 16.8817 32.3995 17.1161 32.634C17.3505 32.8684 17.6685 33.0001 18 33.0001C20.0208 33.004 22.0212 32.5971 23.8799 31.8042ZM20.5 9.25009C20.5 10.6308 19.3807 11.7501 18 11.7501C16.6193 11.7501 15.5 10.6308 15.5 9.25009C15.5 7.86938 16.6193 6.75009 18 6.75009C19.3807 6.75009 20.5 7.86938 20.5 9.25009ZM13 13.0001C13 14.3808 11.8807 15.5001 10.5 15.5001C9.11929 15.5001 8 14.3808 8 13.0001C8 11.6194 9.11929 10.5001 10.5 10.5001C11.8807 10.5001 13 11.6194 13 13.0001ZM25.5 15.5001C26.8807 15.5001 28 14.3808 28 13.0001C28 11.6194 26.8807 10.5001 25.5 10.5001C24.1193 10.5001 23 11.6194 23 13.0001C23 14.3808 24.1193 15.5001 25.5 15.5001ZM29.25 20.5001C29.25 21.8808 28.1307 23.0001 26.75 23.0001C25.3693 23.0001 24.25 21.8808 24.25 20.5001C24.25 19.1194 25.3693 18.0001 26.75 18.0001C28.1307 18.0001 29.25 19.1194 29.25 20.5001ZM21.75 29.2501C23.1307 29.2501 24.25 28.1308 24.25 26.7501C24.25 25.3694 23.1307 24.2501 21.75 24.2501C20.3693 24.2501 19.25 25.3694 19.25 26.7501C19.25 28.1308 20.3693 29.2501 21.75 29.2501Z" fill="url(#paint0_linear_878_7413)"/>
<defs>
<linearGradient id="paint0_linear_878_7413" x1="1.07029" y1="17.9936" x2="36.7564" y2="17.8965" gradientUnits="userSpaceOnUse">
<stop stop-color="#FF1654"/>
<stop offset="1" stop-color="#2E60FB"/>
</linearGradient>
</defs>
</svg>
