<svg width="36" height="36" viewBox="0 0 36 36" fill="none" xmlns="http://www.w3.org/2000/svg">
<path fill-rule="evenodd" clip-rule="evenodd" d="M35.5 15.5V18H33V24.25H35.5V26.75H33V30.5C32.9985 31.8256 32.4712 33.0965 31.5339 34.0339C30.5965 34.9712 29.3256 35.4985 28 35.5H8C6.67437 35.4985 5.40347 34.9712 4.46611 34.0339C3.52875 33.0965 3.00149 31.8256 3 30.5V26.75H0.5V24.25H3V18H0.5V15.5H3V10.5C3.00149 9.17437 3.52875 7.90347 4.46611 6.96611C5.40347 6.02875 6.67437 5.50149 8 5.5H10.5V0.5H13V5.5H23V0.5H25.5V5.5H28C29.3256 5.50149 30.5965 6.02875 31.5339 6.96611C32.4712 7.90347 32.9985 9.17437 33 10.5V15.5H35.5ZM29.7669 32.2669C30.2356 31.7983 30.4992 31.1628 30.5 30.5V10.5C30.4992 9.83719 30.2356 9.20175 29.7669 8.73307C29.2983 8.2644 28.6628 8.00076 28 8H8C7.33719 8.00076 6.70175 8.2644 6.23307 8.73307C5.7644 9.20175 5.50076 9.83719 5.5 10.5V30.5C5.50076 31.1628 5.7644 31.7983 6.23307 32.2669C6.70175 32.7356 7.33719 32.9992 8 33H28C28.6628 32.9992 29.2983 32.7356 29.7669 32.2669ZM13 15.5001C12.5055 15.5001 12.0222 15.6467 11.6111 15.9214C11.2 16.1961 10.8795 16.5866 10.6903 17.0434C10.5011 17.5002 10.4516 18.0029 10.548 18.4878C10.6445 18.9728 10.8826 19.4183 11.2322 19.7679C11.5819 20.1175 12.0273 20.3556 12.5123 20.4521C12.9972 20.5485 13.4999 20.499 13.9567 20.3098C14.4135 20.1206 14.804 19.8002 15.0787 19.389C15.3534 18.9779 15.5 18.4946 15.5 18.0001C15.5032 17.6709 15.4408 17.3444 15.3163 17.0396C15.1918 16.7348 15.0078 16.4579 14.775 16.2251C14.5422 15.9923 14.2653 15.8083 13.9605 15.6838C13.6558 15.5593 13.3292 15.4969 13 15.5001ZM21.6111 15.9214C22.0222 15.6467 22.5055 15.5001 23 15.5001C23.3292 15.4969 23.6558 15.5593 23.9605 15.6838C24.2653 15.8083 24.5422 15.9923 24.775 16.2251C25.0078 16.4579 25.1918 16.7348 25.3163 17.0396C25.4408 17.3444 25.5032 17.6709 25.5 18.0001C25.5 18.4946 25.3534 18.9779 25.0787 19.389C24.804 19.8002 24.4135 20.1206 23.9567 20.3098C23.4999 20.499 22.9972 20.5485 22.5123 20.4521C22.0273 20.3556 21.5819 20.1175 21.2322 19.7679C20.8826 19.4183 20.6445 18.9728 20.548 18.4878C20.4516 18.0029 20.5011 17.5002 20.6903 17.0434C20.8795 16.5866 21.2 16.1961 21.6111 15.9214ZM13.8622 28.2122C15.1345 28.8947 16.5562 29.2512 18 29.25C19.4438 29.2512 20.8655 28.8947 22.1378 28.2122C23.4102 27.5297 24.4936 26.5426 25.2912 25.3391L23.2087 23.9549C22.6385 24.8144 21.8645 25.5194 20.9556 26.0071C20.0468 26.4948 19.0314 26.75 18 26.75C16.9686 26.75 15.9532 26.4948 15.0443 26.0071C14.1355 25.5194 13.3615 24.8144 12.7912 23.9549L10.7087 25.3391C11.5064 26.5426 12.5898 27.5297 13.8622 28.2122Z" fill="url(#paint0_linear_878_7469)"/>
<defs>
<linearGradient id="paint0_linear_878_7469" x1="1.07008" y1="18" x2="36.7429" y2="17.9029" gradientUnits="userSpaceOnUse">
<stop stop-color="#FF1654"/>
<stop offset="1" stop-color="#2E60FB"/>
</linearGradient>
</defs>
</svg>
