<svg width="36" height="36" viewBox="0 0 36 36" fill="none" xmlns="http://www.w3.org/2000/svg">
<path fill-rule="evenodd" clip-rule="evenodd" d="M18.7878 35.4126C18.935 35.4708 19.0919 35.5005 19.2503 35.5001C19.5322 35.4984 19.8053 35.4015 20.0253 35.2251L26.2753 30.2251C26.4226 30.1087 26.5418 29.9606 26.624 29.7918C26.7062 29.623 26.7494 29.4378 26.7503 29.2501V19.7626L31.4753 15.0501C32.7564 13.7761 33.7718 12.2605 34.4628 10.5911C35.1537 8.92173 35.5064 7.13179 35.5003 5.32508V3.00008C35.5003 2.33704 35.2369 1.70115 34.768 1.23231C34.2992 0.763469 33.6633 0.500077 33.0003 0.500077H30.6753C28.8686 0.493991 27.0786 0.846636 25.4092 1.53757C23.7398 2.22849 22.2242 3.24396 20.9503 4.52508L16.2378 9.25008H6.75026C6.56148 9.25243 6.37569 9.29751 6.20682 9.38195C6.03796 9.46638 5.89041 9.58796 5.77526 9.73758L0.775264 15.9876C0.635749 16.1605 0.544833 16.3674 0.511877 16.5871C0.478921 16.8068 0.505116 17.0314 0.587764 17.2376C0.669402 17.4424 0.803748 17.6219 0.977175 17.758C1.1506 17.8941 1.35694 17.982 1.57526 18.0126L10.3253 19.2626L10.6753 16.7626L4.08776 15.8251L7.35026 11.7501H16.7503C16.9148 11.751 17.0779 11.7195 17.2301 11.6573C17.3824 11.5951 17.521 11.5034 17.6378 11.3876L22.7253 6.30008C23.7665 5.25178 25.0052 4.42036 26.3698 3.85392C27.7344 3.28748 29.1978 2.99727 30.6753 3.00008H33.0003V5.32508C33.0031 6.80257 32.7129 8.26595 32.1464 9.63056C31.58 10.9952 30.7486 12.2339 29.7003 13.2751L24.6128 18.3626C24.4969 18.4794 24.4053 18.6179 24.3431 18.7702C24.2808 18.9225 24.2493 19.0856 24.2503 19.2501V28.6501L20.2003 31.9126L19.2628 25.3251L16.7628 25.6751L18.0128 34.4251C18.0434 34.6434 18.1312 34.8497 18.2673 35.0232C18.4034 35.1966 18.583 35.3309 18.7878 35.4126ZM7.11037 27.115L17.1071 17.1183L18.8749 18.886L8.87813 28.8828L7.11037 27.115Z" fill="url(#paint0_linear_878_7223)"/>
<defs>
<linearGradient id="paint0_linear_878_7223" x1="1.06816" y1="18.0001" x2="36.7433" y2="17.903" gradientUnits="userSpaceOnUse">
<stop stop-color="#FF1654"/>
<stop offset="1" stop-color="#2E60FB"/>
</linearGradient>
</defs>
</svg>
