<svg width="40" height="40" viewBox="0 0 40 40" fill="none" xmlns="http://www.w3.org/2000/svg">
<path fill-rule="evenodd" clip-rule="evenodd" d="M20.7875 37.4126C20.9347 37.4708 21.0917 37.5005 21.25 37.5001C21.532 37.4984 21.8051 37.4015 22.025 37.2251L28.275 32.2251C28.4223 32.1087 28.5415 31.9606 28.6238 31.7918C28.706 31.623 28.7491 31.4378 28.75 31.2501V21.7626L33.475 17.0501C34.7561 15.7761 35.7716 14.2605 36.4625 12.5911C37.1534 10.9217 37.5061 9.13179 37.5 7.32508V5.00008C37.5 4.33704 37.2366 3.70115 36.7678 3.23231C36.2989 2.76347 35.663 2.50008 35 2.50008H32.675C30.8683 2.49399 29.0784 2.84664 27.409 3.53757C25.7396 4.22849 24.224 5.24396 22.95 6.52508L18.2375 11.2501H8.75C8.56122 11.2524 8.37543 11.2975 8.20656 11.3819C8.0377 11.4664 7.89016 11.588 7.775 11.7376L2.77501 17.9876C2.63549 18.1605 2.54457 18.3674 2.51162 18.5871C2.47866 18.8068 2.50486 19.0314 2.5875 19.2376C2.66914 19.4424 2.80349 19.6219 2.97692 19.758C3.15034 19.8941 3.35668 19.982 3.575 20.0126L12.325 21.2626L12.675 18.7626L6.0875 17.8251L9.35 13.7501H18.75C18.9145 13.751 19.0776 13.7195 19.2299 13.6573C19.3822 13.5951 19.5207 13.5034 19.6375 13.3876L24.725 8.30008C25.7662 7.25178 27.0049 6.42036 28.3695 5.85392C29.7341 5.28748 31.1975 4.99727 32.675 5.00008H35V7.32508C35.0028 8.80257 34.7126 10.266 34.1462 11.6306C33.5797 12.9952 32.7483 14.2339 31.7 15.2751L26.6125 20.3626C26.4967 20.4794 26.405 20.6179 26.3428 20.7702C26.2806 20.9225 26.2491 21.0856 26.25 21.2501V30.6501L22.2 33.9126L21.2625 27.3251L18.7625 27.6751L20.0125 36.4251C20.0431 36.6434 20.1309 36.8497 20.2671 37.0232C20.4032 37.1966 20.5827 37.3309 20.7875 37.4126ZM9.11011 29.115L19.1068 19.1183L20.8746 20.886L10.8779 30.8828L9.11011 29.115Z" fill="url(#paint0_linear_1009_1158)"/>
<defs>
<linearGradient id="paint0_linear_1009_1158" x1="3.0679" y1="20.0001" x2="38.7431" y2="19.903" gradientUnits="userSpaceOnUse">
<stop stop-color="#FF1654"/>
<stop offset="1" stop-color="#2E60FB"/>
</linearGradient>
</defs>
</svg>
