<svg width="40" height="40" viewBox="0 0 40 40" fill="none" xmlns="http://www.w3.org/2000/svg">
<path fill-rule="evenodd" clip-rule="evenodd" d="M13.7706 3.63328C15.9723 2.7946 18.3207 2.40915 20.675 2.50002C25.0792 2.68139 29.2541 4.51224 32.3709 7.62909C35.4878 10.7459 37.3186 14.9209 37.5 19.325C37.5909 21.6793 37.2054 24.0277 36.3667 26.2295C35.5281 28.4312 34.2534 30.4409 32.6193 32.1381C30.9851 33.8353 29.0251 35.185 26.8566 36.1064C24.6882 37.0278 22.3561 37.5018 20 37.5C19.0054 37.5 18.0516 37.1049 17.3484 36.4017C16.6451 35.6984 16.25 34.7446 16.25 33.75V29.05C16.2511 28.4727 16.119 27.9029 15.8638 27.3851C15.6086 26.8672 15.2373 26.4153 14.7788 26.0645C14.3203 25.7137 13.787 25.4734 13.2205 25.3625C12.6539 25.2516 12.0694 25.273 11.5125 25.425L10.1125 25.8125C9.2186 26.0567 8.28041 26.0914 7.37092 25.9139C6.46142 25.7364 5.60513 25.3515 4.86862 24.7891C4.13211 24.2267 3.53525 23.5021 3.12444 22.6715C2.71363 21.8409 2.49994 20.9267 2.5 20C2.49825 17.644 2.97227 15.3118 3.89363 13.1434C4.815 10.975 6.16474 9.01492 7.86194 7.38075C9.55914 5.74659 11.5688 4.47196 13.7706 3.63328ZM25.8799 33.8041C27.7386 33.0112 29.4168 31.8488 30.8125 30.3875V30.4C32.2211 28.9497 33.319 27.2272 34.039 25.338C34.7591 23.4488 35.086 21.4325 35 19.4125C34.8042 15.6535 33.2229 12.1003 30.5613 9.43871C27.8997 6.77711 24.3465 5.1958 20.5875 5.00002C18.5688 4.9209 16.5549 5.25037 14.6667 5.96868C12.7784 6.687 11.0547 7.77934 9.59904 9.18018C8.14333 10.581 6.98561 12.2615 6.19531 14.1208C5.40502 15.98 4.99845 17.9798 5 20C4.99883 20.5414 5.12235 21.0757 5.361 21.5616C5.59965 22.0475 5.94701 22.472 6.37615 22.802C6.80528 23.132 7.30466 23.3587 7.83556 23.4646C8.36645 23.5705 8.91461 23.5527 9.4375 23.4125L10.8375 23.025C11.3793 22.8767 11.9383 22.801 12.5 22.8C14.1576 22.8 15.7473 23.4585 16.9194 24.6306C18.0915 25.8027 18.75 27.3924 18.75 29.05V33.75C18.75 34.0815 18.8817 34.3995 19.1161 34.6339C19.3505 34.8683 19.6685 35 20 35C22.0208 35.0039 24.0212 34.597 25.8799 33.8041ZM22.5 11.25C22.5 12.6307 21.3807 13.75 20 13.75C18.6193 13.75 17.5 12.6307 17.5 11.25C17.5 9.86931 18.6193 8.75003 20 8.75003C21.3807 8.75003 22.5 9.86931 22.5 11.25ZM15 15C15 16.3807 13.8807 17.5 12.5 17.5C11.1193 17.5 10 16.3807 10 15C10 13.6193 11.1193 12.5 12.5 12.5C13.8807 12.5 15 13.6193 15 15ZM27.5 17.5C28.8807 17.5 30 16.3807 30 15C30 13.6193 28.8807 12.5 27.5 12.5C26.1193 12.5 25 13.6193 25 15C25 16.3807 26.1193 17.5 27.5 17.5ZM31.25 22.5C31.25 23.8807 30.1307 25 28.75 25C27.3693 25 26.25 23.8807 26.25 22.5C26.25 21.1193 27.3693 20 28.75 20C30.1307 20 31.25 21.1193 31.25 22.5ZM23.75 31.25C25.1307 31.25 26.25 30.1307 26.25 28.75C26.25 27.3693 25.1307 26.25 23.75 26.25C22.3693 26.25 21.25 27.3693 21.25 28.75C21.25 30.1307 22.3693 31.25 23.75 31.25Z" fill="url(#paint0_linear_1071_1805)"/>
<defs>
<linearGradient id="paint0_linear_1071_1805" x1="3.07029" y1="19.9935" x2="38.7564" y2="19.8964" gradientUnits="userSpaceOnUse">
<stop stop-color="#FF1654"/>
<stop offset="1" stop-color="#2E60FB"/>
</linearGradient>
</defs>
</svg>
