<svg width="40" height="40" viewBox="0 0 40 40" fill="none" xmlns="http://www.w3.org/2000/svg">
<path d="M15 36.25C14.7532 36.2488 14.5123 36.1745 14.3077 36.0366C14.103 35.8987 13.9438 35.7033 13.85 35.475L7.9125 21.25H2.5V18.75H8.75C8.99678 18.7512 9.23768 18.8255 9.44233 18.9634C9.64698 19.1013 9.80622 19.2967 9.9 19.525L15 31.6L25.075 4.56251C25.1644 4.32326 25.3249 4.11713 25.535 3.97187C25.7451 3.8266 25.9946 3.74918 26.25 3.75001C26.5078 3.75451 26.7578 3.83861 26.966 3.99078C27.1741 4.14294 27.33 4.35574 27.4125 4.60001L32.15 18.75H37.5V21.25H31.25C30.9879 21.2507 30.7323 21.169 30.5192 21.0165C30.3061 20.8639 30.1464 20.6483 30.0625 20.4L26.25 8.75001L16.175 35.4375C16.0856 35.6768 15.9251 35.8829 15.715 36.0281C15.5049 36.1734 15.2554 36.2508 15 36.25Z" fill="url(#paint0_linear_1071_1819)"/>
<defs>
<linearGradient id="paint0_linear_1071_1819" x1="3.07008" y1="20" x2="38.7429" y2="19.8955" gradientUnits="userSpaceOnUse">
<stop stop-color="#FF1654"/>
<stop offset="1" stop-color="#2E60FB"/>
</linearGradient>
</defs>
</svg>
