<svg width="40" height="40" viewBox="0 0 40 40" fill="none" xmlns="http://www.w3.org/2000/svg">
<path d="M29.375 5H10.625L2.14478 16.3067L20 36.9086L37.8553 16.3067L29.375 5ZM33.75 15H26.9429L22.2554 7.5H28.125L33.75 15ZM12.8776 17.5L17.5696 30.2875L6.48752 17.5H12.8776ZM15.5401 17.5H24.46L19.9988 29.6515L15.5401 17.5ZM16.0058 15L20 8.60838L23.9946 15H16.0058ZM27.1226 17.5H33.5125L22.4284 30.2892L27.1226 17.5ZM11.875 7.5H17.7446L13.0571 15H6.25002L11.875 7.5Z" fill="url(#paint0_linear_658_6250)"/>
<defs>
<linearGradient id="paint0_linear_658_6250" x1="2.72642" y1="20.9543" x2="39.1233" y2="20.8435" gradientUnits="userSpaceOnUse">
<stop stop-color="#FF1654"/>
<stop offset="1" stop-color="#2E60FB"/>
</linearGradient>
</defs>
</svg>
