<svg width="40" height="40" viewBox="0 0 40 40" fill="none" xmlns="http://www.w3.org/2000/svg">
<path fill-rule="evenodd" clip-rule="evenodd" d="M12.2803 33.3839L20 37.5L27.7198 33.3836C29.9207 32.2129 31.7612 30.4648 33.0438 28.3272C34.3264 26.1895 35.0027 23.7429 35 21.25V5C34.9993 4.33718 34.7357 3.70172 34.267 3.23304C33.7983 2.76435 33.1628 2.50073 32.5 2.5H7.50001C6.83719 2.50073 6.20173 2.76435 5.73305 3.23304C5.26436 3.70172 5.00074 4.33718 5.00001 5V21.25C4.99729 23.743 5.67353 26.1896 6.95614 28.3273C8.23876 30.465 10.0793 32.2131 12.2803 33.3839ZM7.50001 21.25V5H32.5V21.25C32.5022 23.2898 31.9488 25.2916 30.8993 27.0407C29.8498 28.7897 28.3439 30.22 26.543 31.1779L20 34.6666L13.457 31.1779C11.6562 30.22 10.1502 28.7897 9.10069 27.0407C8.0512 25.2916 7.49784 23.2898 7.50001 21.25ZM20 7.5V31.5963L25.375 28.7224C26.7723 27.9754 27.9406 26.8631 28.7551 25.5041C29.5697 24.1451 30 22.5904 30 21.006V7.5H20Z" fill="url(#paint0_linear_1071_2442)"/>
<defs>
<linearGradient id="paint0_linear_1071_2442" x1="5.48864" y1="20" x2="36.0654" y2="19.9287" gradientUnits="userSpaceOnUse">
<stop stop-color="#FF1654"/>
<stop offset="1" stop-color="#2E60FB"/>
</linearGradient>
</defs>
</svg>
