<svg width="40" height="40" viewBox="0 0 40 40" fill="none" xmlns="http://www.w3.org/2000/svg">
<path d="M25 17.5H35C35.6628 17.4992 36.2983 17.2356 36.7669 16.7669C37.2356 16.2983 37.4992 15.6628 37.5 15V5C37.4992 4.33719 37.2356 3.70175 36.7669 3.23307C36.2983 2.7644 35.6628 2.50076 35 2.5H25C24.3372 2.50076 23.7017 2.7644 23.2331 3.23307C22.7644 3.70175 22.5008 4.33719 22.5 5H11.25C10.5872 5.00076 9.95175 5.2644 9.48307 5.73307C9.0144 6.20175 8.75076 6.83719 8.75 7.5V12.5H5C4.33719 12.5008 3.70175 12.7644 3.23307 13.2331C2.7644 13.7017 2.50076 14.3372 2.5 15V25C2.50076 25.6628 2.7644 26.2983 3.23307 26.7669C3.70175 27.2356 4.33719 27.4992 5 27.5H7.5V32.5C7.50076 33.1628 7.7644 33.7983 8.23307 34.2669C8.70175 34.7356 9.33719 34.9992 10 35H22.5C22.5008 35.6628 22.7644 36.2983 23.2331 36.7669C23.7017 37.2356 24.3372 37.4992 25 37.5H35C35.6628 37.4992 36.2983 37.2356 36.7669 36.7669C37.2356 36.2983 37.4992 35.6628 37.5 35V25C37.4992 24.3372 37.2356 23.7017 36.7669 23.2331C36.2983 22.7644 35.6628 22.5008 35 22.5H25C24.3372 22.5008 23.7017 22.7644 23.2331 23.2331C22.7644 23.7017 22.5008 24.3372 22.5 25V32.5H10V27.5H15C15.6628 27.4992 16.2983 27.2356 16.7669 26.7669C17.2356 26.2983 17.4992 25.6628 17.5 25V15C17.4992 14.3372 17.2356 13.7017 16.7669 13.2331C16.2983 12.7644 15.6628 12.5008 15 12.5H11.25V7.5H22.5V15C22.5008 15.6628 22.7644 16.2983 23.2331 16.7669C23.7017 17.2356 24.3372 17.4992 25 17.5ZM25 35V30H35V35H25ZM35 25V27.5H25V25H35ZM5 25V20H15V25H5ZM15.0006 17.5H5V15H15L15.0006 17.5ZM25 15V10H35V15H25ZM35 5V7.5H25V5H35Z" fill="url(#paint0_linear_1009_1053)"/>
<defs>
<linearGradient id="paint0_linear_1009_1053" x1="3.07008" y1="20" x2="38.7429" y2="19.9029" gradientUnits="userSpaceOnUse">
<stop stop-color="#FF1654"/>
<stop offset="1" stop-color="#2E60FB"/>
</linearGradient>
</defs>
</svg>
