<svg width="40" height="40" viewBox="0 0 40 40" fill="none" xmlns="http://www.w3.org/2000/svg">
<path fill-rule="evenodd" clip-rule="evenodd" d="M37.5 17.5V20H35V26.25H37.5V28.75H35V32.5C34.9985 33.8256 34.4712 35.0965 33.5339 36.0339C32.5965 36.9712 31.3256 37.4985 30 37.5H10C8.67437 37.4985 7.40347 36.9712 6.46611 36.0339C5.52875 35.0965 5.00149 33.8256 5 32.5V28.75H2.5V26.25H5V20H2.5V17.5H5V12.5C5.00149 11.1744 5.52875 9.90347 6.46611 8.96611C7.40347 8.02875 8.67437 7.50149 10 7.5H12.5V2.5H15V7.5H25V2.5H27.5V7.5H30C31.3256 7.50149 32.5965 8.02875 33.5339 8.96611C34.4712 9.90347 34.9985 11.1744 35 12.5V17.5H37.5ZM31.7669 34.2669C32.2356 33.7983 32.4992 33.1628 32.5 32.5V12.5C32.4992 11.8372 32.2356 11.2017 31.7669 10.7331C31.2983 10.2644 30.6628 10.0008 30 10H10C9.33719 10.0008 8.70175 10.2644 8.23307 10.7331C7.7644 11.2017 7.50076 11.8372 7.5 12.5V32.5C7.50076 33.1628 7.7644 33.7983 8.23307 34.2669C8.70175 34.7356 9.33719 34.9992 10 35H30C30.6628 34.9992 31.2983 34.7356 31.7669 34.2669ZM15 17.5001C14.5055 17.5001 14.0222 17.6467 13.6111 17.9214C13.2 18.1961 12.8795 18.5866 12.6903 19.0434C12.5011 19.5002 12.4516 20.0029 12.548 20.4878C12.6445 20.9728 12.8826 21.4183 13.2322 21.7679C13.5819 22.1175 14.0273 22.3556 14.5123 22.4521C14.9972 22.5485 15.4999 22.499 15.9567 22.3098C16.4135 22.1206 16.804 21.8002 17.0787 21.389C17.3534 20.9779 17.5 20.4946 17.5 20.0001C17.5032 19.6709 17.4408 19.3444 17.3163 19.0396C17.1918 18.7348 17.0078 18.4579 16.775 18.2251C16.5422 17.9923 16.2653 17.8083 15.9605 17.6838C15.6558 17.5593 15.3292 17.4969 15 17.5001ZM23.6111 17.9214C24.0222 17.6467 24.5055 17.5001 25 17.5001C25.3292 17.4969 25.6558 17.5593 25.9605 17.6838C26.2653 17.8083 26.5422 17.9923 26.775 18.2251C27.0078 18.4579 27.1918 18.7348 27.3163 19.0396C27.4408 19.3444 27.5032 19.6709 27.5 20.0001C27.5 20.4946 27.3534 20.9779 27.0787 21.389C26.804 21.8002 26.4135 22.1206 25.9567 22.3098C25.4999 22.499 24.9972 22.5485 24.5123 22.4521C24.0273 22.3556 23.5819 22.1175 23.2322 21.7679C22.8826 21.4183 22.6445 20.9728 22.548 20.4878C22.4516 20.0029 22.5011 19.5002 22.6903 19.0434C22.8795 18.5866 23.2 18.1961 23.6111 17.9214ZM15.8622 30.2122C17.1345 30.8947 18.5562 31.2512 20 31.25C21.4438 31.2512 22.8655 30.8947 24.1378 30.2122C25.4102 29.5297 26.4936 28.5426 27.2912 27.3391L25.2087 25.9549C24.6385 26.8144 23.8645 27.5194 22.9556 28.0071C22.0468 28.4948 21.0314 28.75 20 28.75C18.9686 28.75 17.9532 28.4948 17.0443 28.0071C16.1355 27.5194 15.3615 26.8144 14.7912 25.9549L12.7087 27.3391C13.5064 28.5426 14.5898 29.5297 15.8622 30.2122Z" fill="url(#paint0_linear_1009_653)"/>
<defs>
<linearGradient id="paint0_linear_1009_653" x1="3.07008" y1="20" x2="38.7429" y2="19.9029" gradientUnits="userSpaceOnUse">
<stop stop-color="#FF1654"/>
<stop offset="1" stop-color="#2E60FB"/>
</linearGradient>
</defs>
</svg>
