<svg width="339" height="149" viewBox="0 0 339 149" fill="none" xmlns="http://www.w3.org/2000/svg">
<g clip-path="url(#clip0_1158_10204)">
<mask id="mask0_1158_10204" style="mask-type:luminance" maskUnits="userSpaceOnUse" x="0" y="0" width="339" height="149">
<path d="M339 0H0V149H339V0Z" fill="white"/>
</mask>
<g mask="url(#mask0_1158_10204)">
<path d="M291.046 25.6156C254.894 14.0998 215.355 23.5043 188.544 33.4847C140.148 51.4301 105.788 55.1247 85.5099 55.0288C75.1048 54.9808 67.2164 53.9732 61.7961 52.9176C71.4752 44.3287 69.6845 26.3353 69.6845 26.1434C69.6361 26.1434 69.6361 26.1913 69.5877 26.1913C69.4425 26.2393 69.3458 26.2873 69.1522 26.4313C68.6198 26.7191 68.1843 27.007 67.7003 27.3429C67.5067 27.4389 67.3131 27.5828 67.1196 27.6788C54.4399 34.8282 52.6493 48.839 52.4557 50.7583C52.4073 50.9023 52.3589 51.0942 52.1653 51.2861C51.3426 52.4377 48.0517 54.501 35.6141 55.4126C20.4179 56.5162 16.885 61.7943 16.0623 63.8096C15.8687 64.2414 15.8203 64.5293 15.8203 64.6253C17.4174 64.1454 19.0628 64.0015 20.7083 64.2414C21.9181 64.4333 22.8377 64.6732 22.8377 64.6732C28.016 66.1127 32.5168 66.6885 36.3884 66.6885C49.0196 66.6885 55.5046 60.5947 58.1664 57.14C66.926 66.0647 85.0259 83.2425 107.627 98.4529C126.452 111.12 144.649 119.949 161.684 124.651C171.412 127.338 180.801 128.682 189.754 128.682C200.401 128.682 210.516 126.762 219.904 122.972C258.959 107.138 284.899 86.6492 299.805 72.2065C315.969 56.5642 323.132 44.2327 323.18 44.0888C323.18 43.9928 312.678 32.525 291.046 25.6156ZM91.3173 70.9589C103.319 74.7975 119.338 78.1563 138.551 78.1563C154.377 78.1563 172.38 75.8532 192.077 69.6154C246.812 52.2938 270.526 46.3919 290.223 44.7126C271.203 47.0157 250.539 53.4454 202.482 68.4639L192.077 71.7267C149.15 85.1138 113.966 78.972 92.0433 71.4868C88.1716 70.1432 84.542 68.7518 81.2027 67.3123C84.3484 68.5598 87.6877 69.8074 91.3173 70.9589ZM80.3315 66.2087C83.574 67.4562 87.1069 68.6558 90.8818 69.7594C102.255 73.1182 117.306 76.0451 135.357 76.0451C151.86 76.0451 170.831 73.598 191.835 66.8804C248.651 48.6471 273.333 44.3287 293.32 43.8009C272.897 45.1444 249.571 50.7104 191.883 68.9917C148.569 82.7146 113.434 77.2926 91.6077 70.3352C87.4941 69.0396 83.7676 67.6482 80.3315 66.2087ZM191.593 66.2567C147.892 80.2675 112.805 75.5653 91.1237 69.1356C86.8649 67.8881 82.8965 66.4966 79.3152 65.0571C82.7029 66.3047 86.4294 67.5042 90.4462 68.6078C101.19 71.5347 115.225 74.0298 132.018 74.0298C149.15 74.0298 169.186 71.4388 191.544 64.1934C250.635 44.9525 276.237 42.4574 296.369 43.0812C275.704 43.2251 251.458 47.0157 191.593 66.2567ZM91.7529 72.1105C104.384 76.4289 121.323 80.2675 141.6 80.2675C156.796 80.2675 173.832 78.1083 192.27 72.3504L202.675 69.0876C247.393 55.1247 268.348 48.5991 286.4 45.9121C274.107 48.2153 261.089 52.4377 239.892 59.3472C227.502 63.3777 212.064 68.3679 192.367 74.4137C149.828 87.4649 114.596 80.6514 92.5272 72.6383C88.7524 71.2948 85.2679 69.8553 82.0254 68.3679C85.0259 69.6634 88.2684 70.9589 91.7529 72.1105ZM191.302 63.5217C147.214 77.8684 112.224 73.8859 90.5914 67.984C86.139 66.7845 82.0254 65.441 78.3473 64.0495C81.8802 65.249 85.7034 66.4486 89.9139 67.4562C99.9801 69.9513 112.95 72.0625 128.485 72.0625C146.295 72.0625 167.395 69.3275 191.254 61.4584C252.426 41.2578 278.947 40.73 299.176 42.4574C278.463 41.5457 253.249 43.369 191.302 63.5217ZM92.2368 73.3101C105.4 78.1083 123.258 82.4747 144.552 82.4747C159.071 82.4747 175.235 80.4595 192.561 75.1334C212.258 69.0876 227.696 64.0495 240.134 60.0669C260.073 53.5893 272.752 49.4628 284.367 47.1117C275.172 49.3189 265.783 52.6776 253.055 57.188C238.343 62.4181 220.049 68.9437 192.658 77.1967C150.505 89.912 115.225 82.4267 93.0112 73.8859C89.4783 72.5424 86.1874 71.1029 83.0901 69.6634C85.897 70.863 88.9943 72.1105 92.2368 73.3101ZM191.06 60.7867C146.585 75.4693 111.643 72.1585 90.1558 66.7845C85.5583 65.6329 81.3962 64.3374 77.6214 63.0418C81.2027 64.1934 85.1711 65.297 89.4783 66.3046C98.8186 68.4159 110.724 70.0953 124.904 70.0953C143.294 70.0953 165.556 67.2163 191.012 58.7234C254.168 37.6112 281.463 39.1946 301.789 42.0255C281.173 40.0103 254.991 39.6744 191.06 60.7867ZM92.9628 74.7496C91.3657 74.0778 89.8171 73.3581 88.3168 72.6863C89.7687 73.3101 91.2205 73.8859 92.7208 74.4617C106.465 79.7397 125.146 84.6339 147.408 84.6339C161.297 84.6339 176.542 82.7146 192.851 77.8204C220.291 69.5195 238.585 62.9939 253.297 57.7638C263.751 54.0211 271.929 51.1422 279.624 48.983C279.189 49.1269 278.753 49.2709 278.269 49.4628C272.268 51.4781 265.977 53.9732 258.524 56.9001C244.054 62.658 224.308 70.5271 192.851 79.8837C153.167 91.6874 119.242 84.8259 96.8344 76.333C95.4793 75.8052 94.2211 75.2774 92.9628 74.7496ZM150.07 86.8891C163.33 86.8891 177.752 85.1138 193.045 80.5554C223.486 71.5347 242.989 63.8575 257.314 58.1476C243.328 64.2414 224.26 72.3504 193.093 81.4191C171.702 87.6568 151.763 88.2326 134.341 86.0254C139.374 86.5532 144.601 86.8891 150.07 86.8891ZM190.819 58.0517C145.956 73.0702 111.063 70.4311 89.7203 65.5849C84.9291 64.4813 80.6219 63.2818 76.7503 61.9862C80.4283 63.0898 84.542 64.1454 89.0911 65.1051C97.6571 66.8325 108.449 68.2239 121.177 68.2239C140.197 68.2239 163.62 65.2011 190.819 55.9884C255.814 33.9645 284.222 37.8031 304.306 41.6897C283.593 38.6188 256.636 36.0277 190.819 58.0517ZM93.1564 75.6612C94.3179 76.141 95.5277 76.6209 96.786 77.0527C111.45 82.8106 130.663 87.8967 152.78 87.8967C165.459 87.8967 179.058 86.2174 193.335 82.0909C226.534 72.3984 245.989 63.8575 260.218 57.6198C265.735 55.2207 270.574 53.0615 275.269 51.2861C270.768 53.0615 266.122 55.1727 260.895 57.4759C245.651 64.2894 226.68 72.7823 193.093 82.6187C151.715 94.7102 116.338 85.7855 93.8823 76.189C90.7366 74.8455 87.7361 73.454 84.9291 72.0146C87.5425 73.2621 90.2526 74.4617 93.1564 75.6612ZM190.577 55.3167C145.327 70.6711 110.482 68.7518 89.2363 64.4333C84.2516 63.4257 79.7508 62.2261 75.7824 60.9786C79.6056 62.0342 83.8644 63.0418 88.6072 63.9055C96.3505 65.297 105.933 66.3526 117.257 66.3526C136.809 66.3526 161.491 63.1858 190.577 53.2534C257.411 30.3178 287.174 36.6035 306.726 41.4497C286.351 37.4192 258.233 32.3811 190.577 55.3167ZM93.5919 76.8128C108.353 83.1465 128.679 89.1443 152.683 89.1443C165.314 89.1443 178.962 87.4649 193.335 83.2904C226.97 73.502 245.941 64.9611 261.234 58.1476C275.462 51.766 285.335 47.3516 299.37 45.4803C288.239 47.7355 279.286 52.1978 267.38 58.1476C252.523 65.5369 232.148 75.7092 196.481 86.6012C155.441 99.1246 118.564 88.6645 94.8986 77.7245C92.382 76.5729 89.9623 75.3733 87.6393 74.1738C89.5267 74.9895 91.5109 75.9011 93.5919 76.8128ZM308.613 41.2098C289.013 36.3156 259.395 28.8784 190.286 52.5817C144.649 68.2239 109.853 67.0244 88.7524 63.2338C83.6224 62.3221 79.0249 61.2185 74.9596 60.019C78.8313 61.0266 83.2353 61.9382 88.1232 62.706C95.0438 63.7616 103.368 64.5773 113.144 64.5773C133.228 64.5773 159.168 61.2665 190.238 50.4704C258.863 26.6232 290.126 35.5479 308.855 41.2578C308.807 41.2578 308.71 41.2578 308.613 41.2098ZM94.5114 78.2523C110.579 85.6896 132.744 92.9349 158.152 92.9349C170.347 92.9349 183.269 91.2555 196.626 87.177C232.342 76.285 252.716 66.1127 267.622 58.6754C281.754 51.622 291.675 46.6798 306.048 45.0484C295.062 47.2556 286.109 52.2938 274.446 58.8674C258.959 67.6002 237.762 79.4998 199.772 91.6394C159.023 104.643 121.274 92.7909 96.7376 80.5554C87.1069 75.7572 78.6861 70.4791 71.8623 65.7289C78.1537 69.8074 85.8002 74.2218 94.5114 78.2523ZM309.968 40.9219C291.239 35.212 259.927 25.6155 190.044 49.8467C143.972 65.8248 109.272 65.297 88.2684 62.0822C82.9933 61.2665 78.2989 60.2589 74.2337 59.1553C78.2021 60.0669 82.6545 60.9306 87.6877 61.6024C93.6887 62.3701 100.754 62.9459 108.982 62.9459C129.501 62.9459 156.748 59.5391 190.044 47.8314C260.411 23.1205 293.32 34.7802 311.033 41.3058C310.694 41.1139 310.355 41.0179 309.968 40.9219ZM96.3989 81.1792C113.434 89.6721 136.858 98.021 163.233 98.021C174.993 98.021 187.334 96.3896 199.965 92.3591C238.004 80.2196 259.25 68.2719 274.785 59.5391C287.513 52.3897 296.95 47.0637 309.291 45.2404C300.192 47.5435 292.11 52.6776 281.512 59.3472C265.444 69.5195 243.424 83.3864 203.111 96.8215C185.253 102.771 166.282 104.019 146.633 100.612C130.905 97.8771 114.789 92.1192 98.625 83.5303C89.2363 78.5402 80.9607 73.1661 74.0885 68.176C80.4283 72.3984 87.9296 76.9567 96.3989 81.1792ZM311.662 40.73C293.949 34.2524 260.944 22.1128 189.802 47.1117C143.343 63.4257 108.74 63.6176 87.8329 60.8826C82.3642 60.1629 77.573 59.2512 73.3626 58.1956C77.3794 59.0593 82.0254 59.827 87.2521 60.3548C92.2368 60.8826 98.0443 61.2185 104.626 61.2185C125.436 61.2185 154.086 57.6678 189.802 45.0005C262.008 19.3299 296.418 33.9645 313.066 41.2098C312.582 41.0659 312.146 40.9219 311.662 40.73ZM98.2863 84.0581C114.499 92.695 130.711 98.4529 146.488 101.236C153.699 102.483 160.862 103.107 167.879 103.107C180.075 103.107 191.932 101.188 203.305 97.3973C243.715 83.9622 265.783 70.0473 281.899 59.875C293.659 52.4377 302.322 46.9677 312.727 45.1444C305.322 47.3996 298.16 52.4857 288.771 59.1073C272.123 70.863 249.329 86.9851 206.45 101.86C188.738 108.001 169.67 109.105 149.731 105.218C133.76 102.1 117.209 95.7179 100.561 86.3133C91.2689 81.0832 82.9449 75.4213 75.9759 70.2392C82.3642 74.7975 89.9139 79.5958 98.2863 84.0581ZM313.55 40.73C296.95 33.5326 262.347 18.5142 189.512 44.4247C142.713 61.0266 108.111 61.8903 87.3489 59.7311C81.6866 59.1553 76.7503 58.2916 72.4915 57.3319C76.6051 58.0997 81.3962 58.7714 86.7681 59.2032C91.2689 59.5871 95.7697 59.7311 100.27 59.7311C133.47 59.7311 166.476 50.5664 189.512 42.2655C263.509 15.6832 299.37 33.3407 314.905 41.2578C314.469 41.1139 314.034 40.9219 313.55 40.73ZM100.174 86.9371C116.919 96.3896 133.518 102.771 149.537 105.89C157.329 107.426 165.024 108.193 172.525 108.193C184.334 108.193 195.755 106.322 206.644 102.531C249.619 87.6568 272.462 71.4867 289.11 59.6831C299.612 52.2458 307.307 46.8238 315.582 45.0964C310.017 47.2556 304.064 51.9579 296.224 58.1956C280.06 71.0549 255.62 90.4398 209.741 106.994C192.174 113.327 173.009 114.335 152.78 109.921C136.567 106.418 119.629 99.4605 102.448 89.2402C93.3015 83.8182 85.0259 78.0124 78.0086 72.5903C84.4452 77.2926 91.8981 82.2828 100.174 86.9371ZM315.679 40.9219C300.289 33.1008 264.283 14.7235 189.27 41.6897C142.036 58.6754 107.53 60.2589 86.8649 58.5795C81.1059 58.0997 76.0727 57.3799 71.8139 56.5642C75.9759 57.236 80.8155 57.8118 86.3326 58.0997C89.4299 58.2916 92.5756 58.3396 95.7213 58.3396C130.131 58.3396 165.121 48.4072 189.27 39.6264C222.421 27.5828 252.087 23.4084 277.543 27.247C297.337 30.2219 309.726 37.2753 316.695 41.4497C316.357 41.2578 316.018 41.0659 315.679 40.9219ZM102.061 89.816C119.338 100.084 136.325 107.042 152.586 110.592C160.91 112.416 169.089 113.327 177.026 113.327C188.496 113.327 199.53 111.456 209.983 107.665C255.959 91.0636 280.447 71.6307 296.66 58.7714C305.564 51.67 312.001 46.5839 318.147 45.0484C314.517 46.8718 310.21 50.7583 304.209 56.1804C288.723 70.1432 262.831 93.5107 213.08 112.176C195.658 118.701 176.397 119.565 155.829 114.671C139.374 110.784 122.048 103.203 104.336 92.1672C95.3826 86.6012 87.3005 80.7474 80.2347 75.1814C86.6714 79.9796 94.0275 85.0658 102.061 89.816ZM317.954 41.4018C311.178 37.3233 298.499 29.6941 277.64 26.5752C252.087 22.7366 222.276 26.9111 189.028 38.9547C162.749 48.5032 123.597 59.4432 86.4294 57.3799C80.5251 57.044 75.3952 56.4203 71.088 55.7005C75.2984 56.2763 80.2348 56.7082 85.897 56.9001C87.5909 56.9481 89.3331 56.9961 91.027 56.9961C126.598 56.9961 163.717 46.2 189.028 36.8914C223.679 24.1761 254.749 20.4814 281.367 25.8555C300.58 29.742 312.388 37.4192 318.341 41.6417C318.196 41.5457 318.099 41.4498 317.954 41.4018ZM103.949 92.743C121.71 103.779 139.132 111.408 155.683 115.343C164.491 117.454 173.106 118.51 181.43 118.51C192.609 118.51 203.256 116.638 213.322 112.848C263.218 94.1345 289.158 70.719 304.693 56.7082C311.565 50.5184 316.453 46.152 320.373 44.9525C318.631 46.248 316.26 48.7431 312.92 52.2938C299.66 66.3526 272.026 95.6699 216.42 117.31C199.143 124.028 179.784 124.747 158.926 119.373C142.229 115.055 124.468 106.898 106.223 95.0941C97.6087 89.5281 89.7203 83.6263 82.7513 78.0603C89.0911 82.8586 96.2053 87.8967 103.949 92.743ZM86.139 55.7005C106.61 55.7005 140.826 51.9099 188.786 34.1084C215.5 24.2241 254.846 14.8195 290.804 26.2393C305.855 31.0376 315.34 37.947 319.744 41.7376C314.13 37.6591 301.983 29.3102 281.512 25.1357C254.797 19.7137 223.582 23.4084 188.834 36.1717C162.362 45.9121 123.016 57.284 85.9938 56.1804C79.9444 55.9884 74.7177 55.5086 70.3137 54.8848C74.5725 55.3647 79.6056 55.7005 85.4615 55.7005C85.655 55.7005 85.897 55.7005 86.139 55.7005ZM60.9249 52.7256C60.7314 52.6776 60.5378 52.6297 60.2958 52.5817C65.5709 47.7355 66.9744 38.9547 67.9423 32.8609C68.2811 30.6057 68.6198 28.4465 69.1038 27.4389C69.2974 31.1815 69.5393 45.6242 60.9249 52.7256ZM68.4262 27.8707C67.9423 29.0703 67.5551 30.7497 67.2648 32.8129C66.2968 38.9067 64.8934 47.8314 59.4731 52.4377C59.2795 52.3897 59.0859 52.3418 58.8439 52.2938C62.3284 48.887 63.8287 42.7453 65.1837 37.1793C66.1033 33.3407 66.9744 29.6461 68.4262 27.8707ZM67.3131 28.6864C66.1517 30.7497 65.2805 33.8205 64.5062 37.0354C63.1511 42.6493 61.6509 48.935 58.0696 52.1019C57.8276 52.0539 57.634 52.0059 57.3921 51.9579C59.5699 49.6068 60.8281 45.3363 62.0864 40.826C63.4415 36.1237 64.7966 31.3734 67.3131 28.6864ZM61.4089 40.5861C60.1022 45.1924 58.8439 49.5588 56.6177 51.718C56.4242 51.67 56.2306 51.622 56.037 51.574C57.1985 50.0386 58.0212 47.3516 58.9891 44.1368C60.3442 39.6264 61.9896 34.3484 65.0386 30.6537C63.4899 33.4367 62.4252 37.0354 61.4089 40.5861ZM63.4415 31.6613C60.9733 35.308 59.5699 39.9143 58.36 43.9448C57.3921 47.1597 56.5209 50.0386 55.3111 51.3821C55.0691 51.2862 54.8271 51.2382 54.6335 51.1902C55.0207 50.4225 55.4079 49.1269 55.8918 47.3516C57.1017 42.9852 58.9891 36.5076 63.4415 31.6613ZM55.2143 47.1597C54.7303 48.7911 54.3432 50.2305 53.956 50.9503C53.6656 50.8543 53.3752 50.7583 53.1817 50.7104C53.3752 48.7911 54.6819 39.8663 61.5057 32.9089C57.9728 37.5632 56.3274 43.2251 55.2143 47.1597ZM35.7109 56.1324C47.9549 55.2687 51.7782 53.2054 52.8429 51.67C52.8429 51.622 52.8913 51.622 52.8913 51.574C52.9881 51.67 53.0849 51.814 53.2301 51.9099C52.2137 53.3494 48.3421 56.4203 33.5815 56.8521C30.4842 56.9481 27.7256 57.284 25.4026 57.8597C27.9676 57.092 31.3553 56.4683 35.7109 56.1324ZM33.5815 57.5718C48.0517 57.14 52.4073 54.1651 53.714 52.4377C53.8108 52.5817 53.956 52.6776 54.1012 52.8216C52.6009 54.6449 47.6162 58.2916 31.8876 58.2916C31.694 58.2916 31.5005 58.2916 31.3553 58.2916C27.29 58.2916 24.2895 58.9154 22.1117 59.7311C24.9671 58.4355 28.7903 57.7158 33.5815 57.5718ZM31.2585 59.0113H31.4037C47.471 59.0593 52.7945 55.4126 54.4883 53.3494C54.5851 53.4454 54.6335 53.4933 54.7303 53.5893C54.7787 53.6373 54.8271 53.6853 54.8755 53.7333C52.8429 55.9404 46.6483 60.3068 29.3227 59.779C25.2574 59.6351 22.4505 60.3068 20.5147 61.1705C22.6441 60.019 25.9834 59.0113 31.2585 59.0113ZM29.3227 60.4508C46.8418 61.0266 53.2301 56.6602 55.4079 54.2611C55.553 54.405 55.6498 54.501 55.795 54.6449C53.2784 57.236 45.9707 62.2741 27.2417 61.1705C24.1443 60.9786 21.8214 61.5064 20.0307 62.1302C21.9181 61.1705 24.8219 60.3068 29.3227 60.4508ZM27.1933 61.8903C46.2127 62.9939 53.6656 57.9557 56.279 55.1727C56.4242 55.3167 56.5209 55.4126 56.6661 55.5566C55.6982 56.5642 54.1496 57.8118 51.7782 59.0593C47.3742 61.3145 39.147 63.7616 25.1606 62.658C23.4668 62.514 21.6762 62.658 20.0307 62.8979C21.773 62.2261 24.0959 61.6983 27.1933 61.8903ZM23.0796 64.0495C22.9828 64.0015 21.8698 63.6656 20.4179 63.5217C21.9665 63.2818 23.5636 63.1858 25.0639 63.3297C45.5836 64.9611 54.1012 59.2512 57.1501 56.0844C57.3437 56.2763 57.5372 56.4683 57.7308 56.7082C54.4399 61.0266 44.664 70.0473 23.0796 64.0495ZM299.418 71.7267C284.561 86.1214 258.669 106.61 219.759 122.348C202.627 129.306 183.172 129.833 162.023 124.028C145.036 119.325 126.936 110.544 108.159 97.9251C99.7865 92.3111 92.0433 86.4093 85.1227 80.7474C91.4141 85.6895 98.3347 90.7757 105.836 95.6219C124.129 107.474 141.939 115.679 158.732 119.997C168.024 122.396 177.026 123.596 185.689 123.596C196.578 123.596 206.934 121.676 216.662 117.886C272.413 96.1497 300.096 66.7845 313.404 52.6776C317.566 48.2633 320.47 45.1444 322.164 44.6166C320.567 47.2556 313.453 58.1476 299.418 71.7267Z" fill="white"/>
</g>
</g>
<defs>
<clipPath id="clip0_1158_10204">
<rect width="339" height="149" fill="white"/>
</clipPath>
</defs>
</svg>
