<?xml version="1.0" encoding="utf-8"?>
<!-- Generator: Adobe Illustrator 23.0.1, SVG Export Plug-In . SVG Version: 6.00 Build 0)  -->
<svg version="1.1" id="Слой_1" xmlns="http://www.w3.org/2000/svg" xmlns:xlink="http://www.w3.org/1999/xlink" x="0px" y="0px"
	 viewBox="0 0 900 397" style="enable-background:new 0 0 900 397;" xml:space="preserve">
<style type="text/css">
	.st0{clip-path:url(#SVGID_2_);fill:#E80B36;}
</style>
<g>
	<defs>
		<rect id="SVGID_1_" width="900" height="397"/>
	</defs>
	<clipPath id="SVGID_2_">
		<use xlink:href="#SVGID_1_"  style="overflow:visible;"/>
	</clipPath>
	<path class="st0" d="M672,116.4c-74.7-24-156.4-4.4-211.8,16.4c-100,37.4-171,45.1-212.9,44.9c-21.5-0.1-37.8-2.2-49-4.4
		c20-17.9,16.3-55.4,16.3-55.8c-0.1,0-0.1,0.1-0.2,0.1c-0.3,0.1-0.5,0.2-0.9,0.5c-1.1,0.6-2,1.2-3,1.9c-0.4,0.2-0.8,0.5-1.2,0.7
		c-26.2,14.9-29.9,44.1-30.3,48.1c-0.1,0.3-0.2,0.7-0.6,1.1c-1.7,2.4-8.5,6.7-34.2,8.6c-31.4,2.3-38.7,13.3-40.4,17.5l0,0l0,0
		c-0.4,0.9-0.5,1.5-0.5,1.7c0,0,0,0,0,0c3.3-1,6.7-1.3,10.1-0.8c2.5,0.4,4.4,0.9,4.4,0.9c10.7,3,20,4.2,28,4.2
		c26.1,0,39.5-12.7,45-19.9c18.1,18.6,55.5,54.4,102.2,86.1c38.9,26.4,76.5,44.8,111.7,54.6c20.1,5.6,39.5,8.4,58,8.4
		c22,0,42.9-4,62.3-11.9c80.7-33,134.3-75.7,165.1-105.8c33.4-32.6,48.2-58.3,48.3-58.6C738.4,154.7,716.7,130.8,672,116.4
		 M259.3,210.9c24.8,8,57.9,15,97.6,15c32.7,0,69.9-4.8,110.6-17.8c113.1-36.1,162.1-48.4,202.8-51.9c-39.3,4.8-82,18.2-181.3,49.5
		l-21.5,6.8c-88.7,27.9-161.4,15.1-206.7-0.5c-8-2.8-15.5-5.7-22.4-8.7C244.9,205.9,251.8,208.5,259.3,210.9 M236.6,201
		c6.7,2.6,14,5.1,21.8,7.4c23.5,7,54.6,13.1,91.9,13.1c34.1,0,73.3-5.1,116.7-19.1c117.4-38,168.4-47,209.7-48.1
		c-42.2,2.8-90.4,14.4-209.6,52.5c-89.5,28.6-162.1,17.3-207.2,2.8C251.4,206.9,243.7,204,236.6,201 M466.5,201.1
		c-90.3,29.2-162.8,19.4-207.6,6c-8.8-2.6-17-5.5-24.4-8.5c7,2.6,14.7,5.1,23,7.4c22.2,6.1,51.2,11.3,85.9,11.3
		c35.4,0,76.8-5.4,123-20.5c122.1-40.1,175-45.3,216.6-44C640.3,153.1,590.2,161,466.5,201.1 M260.2,213.3c26.1,9,61.1,17,103,17
		c31.4,0,66.6-4.5,104.7-16.5l21.5-6.8c92.4-29.1,135.7-42.7,173-48.3c-25.4,4.8-52.3,13.6-96.1,28c-25.6,8.4-57.5,18.8-98.2,31.4
		c-87.9,27.2-160.7,13-206.3-3.7c-7.8-2.8-15-5.8-21.7-8.9C246.3,208.2,253,210.9,260.2,213.3 M465.9,195.4
		c-91.1,29.9-163.4,21.6-208.1,9.3c-9.2-2.5-17.7-5.3-25.3-8.2c7.3,2.5,15.2,5,23.9,7.1c20.8,5.2,47.6,9.6,79.7,9.6
		c36.8,0,80.4-5.7,129.7-22.1C592.2,149,647,147.9,688.8,151.5C646,149.6,593.9,153.4,465.9,195.4 M261.2,215.8
		c27.2,10,64.1,19.1,108.1,19.1c30,0,63.4-4.2,99.2-15.3c40.7-12.6,72.6-23.1,98.3-31.4c41.2-13.5,67.4-22.1,91.4-27
		c-19,4.6-38.4,11.6-64.7,21c-30.4,10.9-68.2,24.5-124.8,41.7c-87.1,26.5-160,10.9-205.9-6.9c-7.3-2.8-14.1-5.8-20.5-8.8
		C248.1,210.7,254.5,213.3,261.2,215.8 M465.4,189.7c-91.9,30.6-164.1,23.7-208.5,12.5c-9.5-2.4-18.1-5.1-25.9-7.8
		c7.4,2.4,15.6,4.7,24.5,6.8c19.3,4.4,43.9,7.9,73.2,7.9c38,0,84-6,136.6-23.7c130.5-44,186.9-40.7,228.9-34.8
		C651.6,146.4,597.5,145.7,465.4,189.7 M262.7,218.8c-3.3-1.4-6.5-2.9-9.6-4.3c3,1.3,6,2.5,9.1,3.7c28.4,11,67,21.2,113,21.2
		c28.7,0,60.2-4,93.9-14.2c56.7-17.3,94.5-30.9,124.9-41.8c21.6-7.8,38.5-13.8,54.4-18.3c-0.9,0.3-1.8,0.6-2.8,1
		c-12.4,4.2-25.4,9.4-40.8,15.5c-29.9,12-70.7,28.4-135.7,47.9c-82,24.6-152.1,10.3-198.4-7.4C267.9,221,265.3,219.9,262.7,218.8
		 M380.7,244.1c27.4,0,57.2-3.7,88.8-13.2c62.9-18.8,103.2-34.8,132.8-46.7c-28.9,12.7-68.3,29.6-132.7,48.5
		c-44.2,13-85.4,14.2-121.4,9.6C358.6,243.4,369.4,244.1,380.7,244.1 M464.9,184c-92.7,31.3-164.8,25.8-208.9,15.7
		c-9.9-2.3-18.8-4.8-26.8-7.5c7.6,2.3,16.1,4.5,25.5,6.5c17.7,3.6,40,6.5,66.3,6.5c39.3,0,87.7-6.3,143.9-25.5
		c134.3-45.9,193-37.9,234.5-29.8C656.6,143.5,600.9,138.1,464.9,184 M263.1,220.7c2.4,1,4.9,2,7.5,2.9c30.3,12,70,22.6,115.7,22.6
		c26.2,0,54.3-3.5,83.8-12.1c68.6-20.2,108.8-38,138.2-51c11.4-5,21.4-9.5,31.1-13.2c-9.3,3.7-18.9,8.1-29.7,12.9
		c-31.5,14.2-70.7,31.9-140.1,52.4c-85.5,25.2-158.6,6.6-205-13.4c-6.5-2.8-12.7-5.7-18.5-8.7C251.5,215.7,257.1,218.2,263.1,220.7
		 M464.4,178.3c-93.5,32-165.5,28-209.4,19c-10.3-2.1-19.6-4.6-27.8-7.2c7.9,2.2,16.7,4.3,26.5,6.1c16,2.9,35.8,5.1,59.2,5.1
		c40.4,0,91.4-6.6,151.5-27.3c138.1-47.8,199.6-34.7,240-24.6C662.3,141,604.2,130.5,464.4,178.3 M264,223.1
		c30.5,13.2,72.5,25.7,122.1,25.7c26.1,0,54.3-3.5,84-12.2c69.5-20.4,108.7-38.2,140.3-52.4c29.4-13.3,49.8-22.5,78.8-26.4
		c-23,4.7-41.5,14-66.1,26.4c-30.7,15.4-72.8,36.6-146.5,59.3c-84.8,26.1-161,4.3-209.9-18.5c-5.2-2.4-10.2-4.9-15-7.4
		C255.6,219.3,259.7,221.2,264,223.1 M708.3,148.9c-40.5-10.2-101.7-25.7-244.5,23.7c-94.3,32.6-166.2,30.1-209.8,22.2
		c-10.6-1.9-20.1-4.2-28.5-6.7c8,2.1,17.1,4,27.2,5.6c14.3,2.2,31.5,3.9,51.7,3.9c41.5,0,95.1-6.9,159.3-29.4
		c141.8-49.7,206.4-31.1,245.1-19.2C708.7,149,708.5,149,708.3,148.9 M265.9,226.1c33.2,15.5,79,30.6,131.5,30.6
		c25.2,0,51.9-3.5,79.5-12c73.8-22.7,115.9-43.9,146.7-59.4c29.2-14.7,49.7-25,79.4-28.4c-22.7,4.6-41.2,15.1-65.3,28.8
		c-32,18.2-75.8,43-154.3,68.3c-84.2,27.1-162.2,2.4-212.9-23.1c-19.9-10-37.3-21-51.4-30.9C232.1,208.5,247.9,217.7,265.9,226.1
		 M711.1,148.3c-38.7-11.9-103.4-31.9-247.8,18.6c-95.2,33.3-166.9,32.2-210.3,25.5c-10.9-1.7-20.6-3.8-29-6.1
		c8.2,1.9,17.4,3.7,27.8,5.1c12.4,1.6,27,2.8,44,2.8c42.4,0,98.7-7.1,167.5-31.5c145.4-51.5,213.4-27.2,250-13.6
		C712.6,148.7,711.9,148.5,711.1,148.3 M269.8,232.2c35.2,17.7,83.6,35.1,138.1,35.1c24.3,0,49.8-3.4,75.9-11.8
		c78.6-25.3,122.5-50.2,154.6-68.4c26.3-14.9,45.8-26,71.3-29.8c-18.8,4.8-35.5,15.5-57.4,29.4c-33.2,21.2-78.7,50.1-162,78.1
		c-36.9,12.4-76.1,15-116.7,7.9c-32.5-5.7-65.8-17.7-99.2-35.6c-19.4-10.4-36.5-21.6-50.7-32C236.8,213.9,252.3,223.4,269.8,232.2
		 M714.6,147.9c-36.6-13.5-104.8-38.8-251.8,13.3c-96,34-167.5,34.4-210.7,28.7c-11.3-1.5-21.2-3.4-29.9-5.6
		c8.3,1.8,17.9,3.4,28.7,4.5c10.3,1.1,22.3,1.8,35.9,1.8c43,0,102.2-7.4,176-33.8c149.2-53.5,220.3-23,254.7-7.9
		C716.5,148.6,715.6,148.3,714.6,147.9 M273.7,238.2c33.5,18,67,30,99.6,35.8c14.9,2.6,29.7,3.9,44.2,3.9c25.2,0,49.7-4,73.2-11.9
		c83.5-28,129.1-57,162.4-78.2c24.3-15.5,42.2-26.9,63.7-30.7c-15.3,4.7-30.1,15.3-49.5,29.1c-34.4,24.5-81.5,58.1-170.1,89.1
		c-36.6,12.8-76,15.1-117.2,7c-33-6.5-67.2-19.8-101.6-39.4c-19.2-10.9-36.4-22.7-50.8-33.5C240.8,218.9,256.4,228.9,273.7,238.2
		 M718.5,147.9c-34.3-15-105.8-46.3-256.3,7.7C365.5,190.2,294,192,251.1,187.5c-11.7-1.2-21.9-3-30.7-5c8.5,1.6,18.4,3,29.5,3.9
		c9.3,0.8,18.6,1.1,27.9,1.1c68.6,0,136.8-19.1,184.4-36.4c152.9-55.4,227-18.6,259.1-2.1C720.4,148.7,719.5,148.3,718.5,147.9
		 M277.6,244.2c34.6,19.7,68.9,33,102,39.5c16.1,3.2,32,4.8,47.5,4.8c24.4,0,48-3.9,70.5-11.8c88.8-31,136-64.7,170.4-89.3
		c21.7-15.5,37.6-26.8,54.7-30.4c-11.5,4.5-23.8,14.3-40,27.3C649.3,211.1,598.8,251.5,504,286c-36.3,13.2-75.9,15.3-117.7,6.1
		c-33.5-7.3-68.5-21.8-104-43.1c-18.9-11.3-36-23.4-50.5-34.7C245.1,224.1,260.5,234.5,277.6,244.2 M722.9,148.3
		c-31.8-16.3-106.2-54.6-261.2,1.6c-97.6,35.4-168.9,38.7-211.6,35.2c-11.9-1-22.3-2.5-31.1-4.2c8.6,1.4,18.6,2.6,30,3.2
		c6.4,0.4,12.9,0.5,19.4,0.5c71.1,0,143.4-20.7,193.3-39c68.5-25.1,129.8-33.8,182.4-25.8c40.9,6.2,66.5,20.9,80.9,29.6
		C724.3,149,723.6,148.6,722.9,148.3 M281.5,250.2c35.7,21.4,70.8,35.9,104.4,43.3c17.2,3.8,34.1,5.7,50.5,5.7
		c23.7,0,46.5-3.9,68.1-11.8c95-34.6,145.6-75.1,179.1-101.9c18.4-14.8,31.7-25.4,44.4-28.6c-7.5,3.8-16.4,11.9-28.8,23.2
		c-32,29.1-85.5,77.8-188.3,116.7c-36,13.6-75.8,15.4-118.3,5.2c-34-8.1-69.8-23.9-106.4-46.9c-18.5-11.6-35.2-23.8-49.8-35.4
		C249.7,229.7,264.9,240.3,281.5,250.2 M727.6,149.3c-14-8.5-40.2-24.4-83.3-30.9c-52.8-8-114.4,0.7-183.1,25.8
		c-54.3,19.9-135.2,42.7-212,38.4c-12.2-0.7-22.8-2-31.7-3.5c8.7,1.2,18.9,2.1,30.6,2.5c3.5,0.1,7.1,0.2,10.6,0.2
		c73.5,0,150.2-22.5,202.5-41.9c71.6-26.5,135.8-34.2,190.8-23c39.7,8.1,64.1,24.1,76.4,32.9C728.1,149.6,727.9,149.4,727.6,149.3
		 M285.4,256.3c36.7,23,72.7,38.9,106.9,47.1c18.2,4.4,36,6.6,53.2,6.6c23.1,0,45.1-3.9,65.9-11.8c103.1-39,156.7-87.8,188.8-117
		c14.2-12.9,24.3-22,32.4-24.5c-3.6,2.7-8.5,7.9-15.4,15.3c-27.4,29.3-84.5,90.4-199.4,135.5c-35.7,14-75.7,15.5-118.8,4.3
		c-34.5-9-71.2-26-108.9-50.6c-17.8-11.6-34.1-23.9-48.5-35.5C254.7,235.7,269.4,246.2,285.4,256.3 M248.6,179.1
		c42.3,0,113-7.9,212.1-45c55.2-20.6,136.5-40.2,210.8-16.4c31.1,10,50.7,24.4,59.8,32.3c-11.6-8.5-36.7-25.9-79-34.6
		c-55.2-11.3-119.7-3.6-191.5,23c-54.7,20.3-136,44-212.5,41.7c-12.5-0.4-23.3-1.4-32.4-2.7c8.8,1,19.2,1.7,31.3,1.7
		C247.6,179.1,248.1,179.1,248.6,179.1 M196.5,172.9c-0.4-0.1-0.8-0.2-1.3-0.3c10.9-10.1,13.8-28.4,15.8-41.1
		c0.7-4.7,1.4-9.2,2.4-11.3C213.8,128,214.3,158.1,196.5,172.9 M212,121.1c-1,2.5-1.8,6-2.4,10.3c-2,12.7-4.9,31.3-16.1,40.9
		c-0.4-0.1-0.8-0.2-1.3-0.3c7.2-7.1,10.3-19.9,13.1-31.5C207.2,132.5,209,124.8,212,121.1 M209.7,122.8c-2.4,4.3-4.2,10.7-5.8,17.4
		c-2.8,11.7-5.9,24.8-13.3,31.4c-0.5-0.1-0.9-0.2-1.4-0.3c4.5-4.9,7.1-13.8,9.7-23.2C201.7,138.3,204.5,128.4,209.7,122.8
		 M197.5,147.6c-2.7,9.6-5.3,18.7-9.9,23.2c-0.4-0.1-0.8-0.2-1.2-0.3c2.4-3.2,4.1-8.8,6.1-15.5c2.8-9.4,6.2-20.4,12.5-28.1
		C201.8,132.7,199.6,140.2,197.5,147.6 M201.7,129c-5.1,7.6-8,17.2-10.5,25.6c-2,6.7-3.8,12.7-6.3,15.5c-0.5-0.2-1-0.3-1.4-0.4
		c0.8-1.6,1.6-4.3,2.6-8C188.6,152.6,192.5,139.1,201.7,129 M184.7,161.3c-1,3.4-1.8,6.4-2.6,7.9c-0.6-0.2-1.2-0.4-1.6-0.5
		c0.4-4,3.1-22.6,17.2-37.1C190.4,141.3,187,153.1,184.7,161.3 M144.4,180c25.3-1.8,33.2-6.1,35.4-9.3c0-0.1,0.1-0.1,0.1-0.2
		c0.2,0.2,0.4,0.5,0.7,0.7c-2.1,3-10.1,9.4-40.6,10.3c-6.4,0.2-12.1,0.9-16.9,2.1C128.4,182,135.4,180.7,144.4,180 M140,183
		c29.9-0.9,38.9-7.1,41.6-10.7c0.2,0.3,0.5,0.5,0.8,0.8c-3.1,3.8-13.4,11.4-45.9,11.4c-0.4,0-0.8,0-1.1,0c-8.4,0-14.6,1.3-19.1,3
		C122.2,184.8,130.1,183.3,140,183 M135.2,186h0.3c33.2,0.1,44.2-7.5,47.7-11.8c0.2,0.2,0.3,0.3,0.5,0.5c0.1,0.1,0.2,0.2,0.3,0.3
		c-4.2,4.6-17,13.7-52.8,12.6c-8.4-0.3-14.2,1.1-18.2,2.9C117.4,188.1,124.3,186,135.2,186 M131.2,189c36.2,1.2,49.4-7.9,53.9-12.9
		c0.3,0.3,0.5,0.5,0.8,0.8c-5.2,5.4-20.3,15.9-59,13.6c-6.4-0.4-11.2,0.7-14.9,2C115.9,190.5,121.9,188.7,131.2,189 M126.8,192
		c39.3,2.3,54.7-8.2,60.1-14c0.3,0.3,0.5,0.5,0.8,0.8c-2,2.1-5.2,4.7-10.1,7.3c-9.1,4.7-26.1,9.8-55,7.5c-3.5-0.3-7.2,0-10.6,0.5
		C115.6,192.7,120.4,191.6,126.8,192 M118.3,196.5c-0.2-0.1-2.5-0.8-5.5-1.1c3.2-0.5,6.5-0.7,9.6-0.4c42.4,3.4,60-8.5,66.3-15.1
		c0.4,0.4,0.8,0.8,1.2,1.3C183.1,190.2,162.9,209,118.3,196.5 M689.3,212.5c-30.7,30-84.2,72.7-164.6,105.5
		c-35.4,14.5-75.6,15.6-119.3,3.5c-35.1-9.8-72.5-28.1-111.3-54.4c-17.3-11.7-33.3-24-47.6-35.8c13,10.3,27.3,20.9,42.8,31
		c37.8,24.7,74.6,41.8,109.3,50.8c19.2,5,37.8,7.5,55.7,7.5c22.5,0,43.9-4,64-11.9c115.2-45.3,172.4-106.5,199.9-135.9
		c8.6-9.2,14.6-15.7,18.1-16.8C733,161.5,718.3,184.2,689.3,212.5"/>
</g>
</svg>
