<svg width="16" height="16" viewBox="0 0 16 16" fill="none" xmlns="http://www.w3.org/2000/svg">
<rect width="16" height="16" rx="2" fill="#E66C00"/>
<path d="M12.3615 7.20595L11.6669 5.61853H10.855L11.5513 7.20595H12.3615Z" fill="white"/>
<path d="M13.1729 8.90295H12.3076L13.1128 10.7641H13.9755L13.1729 8.90295Z" fill="white"/>
<path d="M11.6888 8.91972L10.9705 7.2682L10.2628 5.6447L9.46329 3.8125H8.305L8.78955 5.6447H7.85793L7.43137 7.2682H9.217L9.65247 8.91972H6.9959L6.49707 10.8097H10.1513L10.5154 12.1875H13.1148L12.5143 10.8097L11.6888 8.91972Z" fill="white"/>
<path d="M6.82237 7.2682H6.82326L7.13202 6.09372L7.73437 3.8125H6.57697L5.7783 5.6447H4.34159L3.63394 7.2682H5.07065L4.35051 8.91972H2.85402L2.03125 10.8097H3.52596L2.9254 12.1875H5.52487L5.88806 10.8097H5.88984L6.38779 8.91972H6.38689L6.82237 7.2682Z" fill="white"/>
</svg>
